<mxfile host="Electron" modified="2023-05-01T14:41:40.308Z" agent="Mozilla/5.0 (Windows NT 10.0; Win64; x64) AppleWebKit/537.36 (KHTML, like Gecko) draw.io/21.2.1 Chrome/112.0.5615.87 Electron/24.1.2 Safari/537.36" etag="_JbRqswAx55BqkXkuJKC" version="21.2.1" type="device">
  <diagram name="Page-1" id="IovuPlnuYOxv74p460Sw">
    <mxGraphModel dx="1607" dy="566" grid="1" gridSize="10" guides="1" tooltips="1" connect="1" arrows="1" fold="1" page="1" pageScale="1" pageWidth="850" pageHeight="1100" math="0" shadow="0">
      <root>
        <mxCell id="0" />
        <mxCell id="1" parent="0" />
        <mxCell id="tjZRGbeKw34wrT0C9eUE-2" value="&lt;i style=&quot;border-color: var(--border-color); color: rgb(0, 153, 0);&quot;&gt;&lt;font style=&quot;border-color: var(--border-color); font-size: 15px;&quot;&gt;&amp;lt;&amp;lt;HttpServlet&amp;gt;&amp;gt;&lt;/font&gt;&lt;/i&gt;&lt;font color=&quot;#009900&quot; style=&quot;&quot;&gt;&lt;b style=&quot;font-size: 18px;&quot;&gt;&lt;br&gt;addArticle&lt;/b&gt;&lt;/font&gt;" style="rounded=0;whiteSpace=wrap;html=1;strokeWidth=3;fillColor=default;strokeColor=#009900;" parent="1" vertex="1">
          <mxGeometry x="-160" y="220" width="150" height="60" as="geometry" />
        </mxCell>
        <mxCell id="tjZRGbeKw34wrT0C9eUE-3" value="&lt;font color=&quot;#009900&quot; style=&quot;&quot;&gt;&lt;i style=&quot;&quot;&gt;&lt;font style=&quot;font-size: 15px;&quot;&gt;&amp;lt;&amp;lt;Class&amp;gt;&amp;gt;&lt;/font&gt;&lt;/i&gt;&lt;br&gt;&lt;b style=&quot;font-size: 18px;&quot;&gt;Article&lt;/b&gt;&lt;/font&gt;" style="rounded=0;whiteSpace=wrap;html=1;strokeWidth=3;fillColor=default;strokeColor=#009900;" parent="1" vertex="1">
          <mxGeometry x="460" y="220" width="150" height="60" as="geometry" />
        </mxCell>
        <mxCell id="tjZRGbeKw34wrT0C9eUE-4" value="" style="endArrow=none;html=1;rounded=0;entryX=0.5;entryY=1;entryDx=0;entryDy=0;strokeWidth=2;fillColor=#d5e8d4;strokeColor=#009900;dashed=1;" parent="1" source="tjZRGbeKw34wrT0C9eUE-6" target="tjZRGbeKw34wrT0C9eUE-2" edge="1">
          <mxGeometry width="50" height="50" relative="1" as="geometry">
            <mxPoint x="-85" y="670" as="sourcePoint" />
            <mxPoint x="160" y="440" as="targetPoint" />
          </mxGeometry>
        </mxCell>
        <mxCell id="tjZRGbeKw34wrT0C9eUE-5" value="" style="endArrow=none;html=1;rounded=0;entryX=0.5;entryY=1;entryDx=0;entryDy=0;strokeWidth=2;fillColor=#d5e8d4;strokeColor=#009900;dashed=1;" parent="1" source="tjZRGbeKw34wrT0C9eUE-10" target="tjZRGbeKw34wrT0C9eUE-3" edge="1">
          <mxGeometry width="50" height="50" relative="1" as="geometry">
            <mxPoint x="535" y="670" as="sourcePoint" />
            <mxPoint x="255" y="350" as="targetPoint" />
          </mxGeometry>
        </mxCell>
        <mxCell id="tjZRGbeKw34wrT0C9eUE-7" value="" style="endArrow=none;html=1;rounded=0;entryX=0.5;entryY=1;entryDx=0;entryDy=0;strokeWidth=2;fillColor=#d5e8d4;strokeColor=#009900;dashed=1;" parent="1" edge="1">
          <mxGeometry width="50" height="50" relative="1" as="geometry">
            <mxPoint x="-85" y="720" as="sourcePoint" />
            <mxPoint x="-85" y="660" as="targetPoint" />
          </mxGeometry>
        </mxCell>
        <mxCell id="tjZRGbeKw34wrT0C9eUE-6" value="" style="rounded=0;whiteSpace=wrap;html=1;fillColor=#FFFFFF;strokeWidth=2;strokeColor=#009900;" parent="1" vertex="1">
          <mxGeometry x="-97.5" y="340" width="25" height="320" as="geometry" />
        </mxCell>
        <mxCell id="tjZRGbeKw34wrT0C9eUE-9" value="" style="endArrow=none;html=1;rounded=0;exitX=0;exitY=0.25;exitDx=0;exitDy=0;strokeWidth=2;strokeColor=#009900;startArrow=classic;startFill=1;entryX=1.008;entryY=0.241;entryDx=0;entryDy=0;entryPerimeter=0;" parent="1" source="tjZRGbeKw34wrT0C9eUE-10" edge="1">
          <mxGeometry width="50" height="50" relative="1" as="geometry">
            <mxPoint x="490" y="539" as="sourcePoint" />
            <mxPoint x="-72.30000000000018" y="537.8399999999999" as="targetPoint" />
          </mxGeometry>
        </mxCell>
        <mxCell id="tjZRGbeKw34wrT0C9eUE-11" value="" style="endArrow=none;html=1;rounded=0;entryX=0.5;entryY=1;entryDx=0;entryDy=0;strokeWidth=2;fillColor=#d5e8d4;strokeColor=#009900;dashed=1;" parent="1" target="tjZRGbeKw34wrT0C9eUE-10" edge="1">
          <mxGeometry width="50" height="50" relative="1" as="geometry">
            <mxPoint x="535" y="720" as="sourcePoint" />
            <mxPoint x="535" y="480" as="targetPoint" />
          </mxGeometry>
        </mxCell>
        <mxCell id="tjZRGbeKw34wrT0C9eUE-10" value="" style="rounded=0;whiteSpace=wrap;html=1;fillColor=#FFFFFF;strokeWidth=2;strokeColor=#009900;" parent="1" vertex="1">
          <mxGeometry x="522.5" y="520" width="25" height="70" as="geometry" />
        </mxCell>
        <mxCell id="tjZRGbeKw34wrT0C9eUE-12" value="&lt;font style=&quot;&quot;&gt;&lt;i style=&quot;&quot;&gt;&lt;font style=&quot;font-size: 12px;&quot;&gt;&amp;lt;&amp;lt;static&amp;gt;&amp;gt;&lt;/font&gt;&lt;/i&gt;&lt;br&gt;&lt;span style=&quot;font-size: 14px;&quot;&gt;createArticle(user.getId(), base_price,&lt;/span&gt;&lt;br&gt;&lt;span style=&quot;font-size: 14px;&quot;&gt;name, description, imagePart)&lt;/span&gt;&lt;/font&gt;" style="text;html=1;align=center;verticalAlign=middle;resizable=0;points=[];autosize=1;strokeColor=none;fillColor=none;" parent="1" vertex="1">
          <mxGeometry x="5" y="480" width="260" height="60" as="geometry" />
        </mxCell>
        <mxCell id="tjZRGbeKw34wrT0C9eUE-14" value="&lt;font color=&quot;#009900&quot; style=&quot;&quot;&gt;&lt;i style=&quot;&quot;&gt;&lt;font style=&quot;font-size: 15px;&quot;&gt;&amp;lt;&amp;lt;HttpServlet&amp;gt;&amp;gt;&lt;/font&gt;&lt;/i&gt;&lt;br&gt;&lt;b style=&quot;font-size: 18px;&quot;&gt;sell&lt;/b&gt;&lt;/font&gt;" style="rounded=0;whiteSpace=wrap;html=1;strokeWidth=3;fillColor=default;strokeColor=#009900;" parent="1" vertex="1">
          <mxGeometry x="660" y="220" width="150" height="60" as="geometry" />
        </mxCell>
        <mxCell id="tjZRGbeKw34wrT0C9eUE-15" value="" style="endArrow=none;html=1;rounded=0;entryX=0.5;entryY=1;entryDx=0;entryDy=0;strokeWidth=2;fillColor=#d5e8d4;strokeColor=#009900;dashed=1;" parent="1" source="tjZRGbeKw34wrT0C9eUE-17" target="tjZRGbeKw34wrT0C9eUE-14" edge="1">
          <mxGeometry width="50" height="50" relative="1" as="geometry">
            <mxPoint x="735" y="670" as="sourcePoint" />
            <mxPoint x="455" y="350" as="targetPoint" />
          </mxGeometry>
        </mxCell>
        <mxCell id="tjZRGbeKw34wrT0C9eUE-16" value="" style="endArrow=none;html=1;rounded=0;entryX=0.5;entryY=1;entryDx=0;entryDy=0;strokeWidth=2;fillColor=#d5e8d4;strokeColor=#009900;dashed=1;" parent="1" target="tjZRGbeKw34wrT0C9eUE-17" edge="1">
          <mxGeometry width="50" height="50" relative="1" as="geometry">
            <mxPoint x="735" y="720" as="sourcePoint" />
            <mxPoint x="735" y="480" as="targetPoint" />
          </mxGeometry>
        </mxCell>
        <mxCell id="tjZRGbeKw34wrT0C9eUE-17" value="" style="rounded=0;whiteSpace=wrap;html=1;fillColor=#FFFFFF;strokeWidth=2;strokeColor=#009900;" parent="1" vertex="1">
          <mxGeometry x="722.5" y="610" width="25" height="80" as="geometry" />
        </mxCell>
        <mxCell id="tjZRGbeKw34wrT0C9eUE-18" value="" style="endArrow=none;html=1;rounded=0;strokeWidth=2;strokeColor=#009900;startArrow=classic;startFill=1;entryX=1.049;entryY=0.611;entryDx=0;entryDy=0;entryPerimeter=0;" parent="1" edge="1">
          <mxGeometry width="50" height="50" relative="1" as="geometry">
            <mxPoint x="720" y="627" as="sourcePoint" />
            <mxPoint x="-71.27500000000009" y="626.6400000000001" as="targetPoint" />
          </mxGeometry>
        </mxCell>
        <mxCell id="tjZRGbeKw34wrT0C9eUE-19" value="&lt;font style=&quot;font-size: 14px;&quot;&gt;resp.sendRedirect&lt;/font&gt;" style="text;html=1;align=center;verticalAlign=middle;resizable=0;points=[];autosize=1;strokeColor=none;fillColor=none;" parent="1" vertex="1">
          <mxGeometry x="65" y="600" width="140" height="30" as="geometry" />
        </mxCell>
        <mxCell id="tjZRGbeKw34wrT0C9eUE-20" value="" style="endArrow=none;html=1;rounded=0;exitX=0;exitY=0.25;exitDx=0;exitDy=0;strokeWidth=2;strokeColor=#009900;startArrow=classic;startFill=1;" parent="1" edge="1">
          <mxGeometry width="50" height="50" relative="1" as="geometry">
            <mxPoint x="-97.5" y="360" as="sourcePoint" />
            <mxPoint x="-220" y="360" as="targetPoint" />
          </mxGeometry>
        </mxCell>
        <mxCell id="tjZRGbeKw34wrT0C9eUE-21" value="&lt;font style=&quot;font-size: 14px;&quot;&gt;doPost&lt;/font&gt;" style="text;html=1;align=center;verticalAlign=middle;resizable=0;points=[];autosize=1;strokeColor=none;fillColor=none;" parent="1" vertex="1">
          <mxGeometry x="-185" y="334" width="70" height="30" as="geometry" />
        </mxCell>
        <mxCell id="tjZRGbeKw34wrT0C9eUE-22" value="&lt;font style=&quot;font-size: 14px;&quot;&gt;&lt;i&gt;POST&lt;/i&gt;&lt;br&gt;&lt;b&gt;/addArticle&lt;/b&gt;&lt;/font&gt;&lt;br&gt;name&lt;br&gt;description&lt;br&gt;basePrice&lt;br&gt;image" style="text;html=1;align=right;verticalAlign=middle;resizable=0;points=[];autosize=1;strokeColor=none;fillColor=none;" parent="1" vertex="1">
          <mxGeometry x="-220" y="380" width="100" height="100" as="geometry" />
        </mxCell>
        <mxCell id="tjZRGbeKw34wrT0C9eUE-23" value="&lt;font color=&quot;#009900&quot; style=&quot;&quot;&gt;&lt;span style=&quot;font-size: 15px;&quot;&gt;&lt;i&gt;&amp;lt;&amp;lt;HttpSession&amp;gt;&amp;gt;&lt;/i&gt;&lt;/span&gt;&lt;br&gt;&lt;span style=&quot;font-size: 18px;&quot;&gt;&lt;b&gt;session&lt;/b&gt;&lt;/span&gt;&lt;br&gt;&lt;/font&gt;" style="rounded=0;whiteSpace=wrap;html=1;strokeWidth=3;fillColor=default;strokeColor=#009900;" parent="1" vertex="1">
          <mxGeometry x="250" y="220" width="150" height="60" as="geometry" />
        </mxCell>
        <mxCell id="tjZRGbeKw34wrT0C9eUE-24" value="" style="endArrow=none;html=1;rounded=0;entryX=0.5;entryY=1;entryDx=0;entryDy=0;strokeWidth=2;fillColor=#d5e8d4;strokeColor=#009900;dashed=1;" parent="1" source="tjZRGbeKw34wrT0C9eUE-26" target="tjZRGbeKw34wrT0C9eUE-23" edge="1">
          <mxGeometry width="50" height="50" relative="1" as="geometry">
            <mxPoint x="325" y="670" as="sourcePoint" />
            <mxPoint x="45" y="350" as="targetPoint" />
          </mxGeometry>
        </mxCell>
        <mxCell id="tjZRGbeKw34wrT0C9eUE-25" value="" style="endArrow=none;html=1;rounded=0;entryX=0.5;entryY=1;entryDx=0;entryDy=0;strokeWidth=2;fillColor=#d5e8d4;strokeColor=#009900;dashed=1;" parent="1" target="tjZRGbeKw34wrT0C9eUE-26" edge="1">
          <mxGeometry width="50" height="50" relative="1" as="geometry">
            <mxPoint x="325" y="720" as="sourcePoint" />
            <mxPoint x="325" y="490" as="targetPoint" />
          </mxGeometry>
        </mxCell>
        <mxCell id="tjZRGbeKw34wrT0C9eUE-26" value="" style="rounded=0;whiteSpace=wrap;html=1;fillColor=#FFFFFF;strokeWidth=2;strokeColor=#009900;" parent="1" vertex="1">
          <mxGeometry x="312.5" y="340" width="25" height="120" as="geometry" />
        </mxCell>
        <mxCell id="tjZRGbeKw34wrT0C9eUE-27" value="" style="endArrow=none;html=1;rounded=0;strokeWidth=2;strokeColor=#009900;startArrow=classic;startFill=1;entryX=0.999;entryY=0.091;entryDx=0;entryDy=0;entryPerimeter=0;" parent="1" target="tjZRGbeKw34wrT0C9eUE-6" edge="1">
          <mxGeometry width="50" height="50" relative="1" as="geometry">
            <mxPoint x="310" y="370" as="sourcePoint" />
            <mxPoint x="-72.50000000000018" y="387.8399999999999" as="targetPoint" />
          </mxGeometry>
        </mxCell>
        <mxCell id="tjZRGbeKw34wrT0C9eUE-28" value="&lt;font style=&quot;font-size: 14px;&quot;&gt;getAttribute(&quot;user&quot;)&lt;/font&gt;" style="text;html=1;align=center;verticalAlign=middle;resizable=0;points=[];autosize=1;strokeColor=none;fillColor=none;" parent="1" vertex="1">
          <mxGeometry x="63" y="344" width="140" height="30" as="geometry" />
        </mxCell>
        <mxCell id="tjZRGbeKw34wrT0C9eUE-29" value="" style="endArrow=none;html=1;rounded=0;strokeWidth=2;strokeColor=#009900;startArrow=classic;startFill=1;entryX=0.999;entryY=0.091;entryDx=0;entryDy=0;entryPerimeter=0;" parent="1" edge="1">
          <mxGeometry width="50" height="50" relative="1" as="geometry">
            <mxPoint x="-72.5" y="439" as="sourcePoint" />
            <mxPoint x="310.5" y="440" as="targetPoint" />
          </mxGeometry>
        </mxCell>
        <mxCell id="tjZRGbeKw34wrT0C9eUE-30" value="&lt;font style=&quot;font-size: 14px;&quot;&gt;&lt;i&gt;User&lt;/i&gt; user&lt;/font&gt;" style="text;html=1;align=center;verticalAlign=middle;resizable=0;points=[];autosize=1;strokeColor=none;fillColor=none;" parent="1" vertex="1">
          <mxGeometry x="93.5" y="415" width="80" height="30" as="geometry" />
        </mxCell>
        <mxCell id="tjZRGbeKw34wrT0C9eUE-34" value="" style="group" parent="1" vertex="1" connectable="0">
          <mxGeometry x="-95" y="710" width="20" height="20" as="geometry" />
        </mxCell>
        <mxCell id="tjZRGbeKw34wrT0C9eUE-32" value="" style="endArrow=none;html=1;rounded=0;strokeWidth=2;fillColor=#d5e8d4;strokeColor=#009900;" parent="tjZRGbeKw34wrT0C9eUE-34" edge="1">
          <mxGeometry width="50" height="50" relative="1" as="geometry">
            <mxPoint y="20" as="sourcePoint" />
            <mxPoint x="20" as="targetPoint" />
          </mxGeometry>
        </mxCell>
        <mxCell id="tjZRGbeKw34wrT0C9eUE-33" value="" style="endArrow=none;html=1;rounded=0;strokeWidth=2;fillColor=#d5e8d4;strokeColor=#009900;" parent="tjZRGbeKw34wrT0C9eUE-34" edge="1">
          <mxGeometry width="50" height="50" relative="1" as="geometry">
            <mxPoint x="20" y="20" as="sourcePoint" />
            <mxPoint as="targetPoint" />
          </mxGeometry>
        </mxCell>
      </root>
    </mxGraphModel>
  </diagram>
</mxfile>
